# xmcd
#
# Track frame offsets:
#	150
#	2970
#	16319
#	18800
#	48002
#	65695
#	67103
#	83609
#	118231
#	128732
#	131118
#	135458
#	155587
#	171948
#	192288
#	193679
#	196679
#	202274
#	224014
#	246569
#	271884
#	274321
#	280324
#	289940
#	316893
#
# Disc length: 4321 seconds
#
# Revision: 0
# Processed by: cddbd v1.5.2PL0 Copyright (c) Steve Scherf et al.
# Submitted via: audiograbber 1.83.01
#
DISCID=8810df19
DTITLE=Kelly McKain - Ponyhof Liliengrün - Paula und Merlin
DYEAR=2009
DGENRE=Hörspiel
TTITLE0=Musik- Lillygreen
TTITLE1=Endlich da!
TTITLE2=Endlich da!
TTITLE3=Mein Pony
TTITLE4=Kein anderes Pony!
TTITLE5=Kein anderes Pony!
TTITLE6=Vor dem Strandritt
TTITLE7=Am Strand
TTITLE8=Am Strand
TTITLE9=Am Strand
TTITLE10=Ein schrecklicher Vormittag
TTITLE11=Ein schrecklicher Vormittag
TTITLE12=Üben, üben, üben
TTITLE13=Üben, üben, üben
TTITLE14=Üben, üben, üben
TTITLE15=Die Entscheidung
TTITLE16=Die Entscheidung
TTITLE17=Die Entscheidung
TTITLE18=Heckenalarm!
TTITLE19=Heckenalarm!
TTITLE20=Heckenalarm!
TTITLE21=Der letzte Tag
TTITLE22=Der letzte Tag
TTITLE23=Überraschung!
TTITLE24=Musik- Lillygreen
EXTD=
EXTT0=
EXTT1=
EXTT2=
EXTT3=
EXTT4=
EXTT5=
EXTT6=
EXTT7=
EXTT8=
EXTT9=
EXTT10=
EXTT11=
EXTT12=
EXTT13=
EXTT14=
EXTT15=
EXTT16=
EXTT17=
EXTT18=
EXTT19=
EXTT20=
EXTT21=
EXTT22=
EXTT23=
EXTT24=
PLAYORDER=
